HIERARCHY
ROOT joint_Root
{
	OFFSET 0.0 0.0 0.0
	CHANNELS 6 Xposition Yposition Zposition Zrotation Xrotation Yrotation 
	JOINT Hips
	{
		OFFSET -17.1583 93.1646 452.98
		CHANNELS 6 Xposition Yposition Zposition Zrotation Xrotation Yrotation 
		JOINT Spine
		{
			OFFSET 15.7357 0.0 0.0
			CHANNELS 6 Xposition Yposition Zposition Zrotation Xrotation Yrotation 
			JOINT Chest
			{
				OFFSET 8.98455 -0.406207 0.0
				CHANNELS 6 Xposition Yposition Zposition Zrotation Xrotation Yrotation 
				JOINT Neck
				{
					OFFSET 16.3773 0.0 0.0
					CHANNELS 6 Xposition Yposition Zposition Zrotation Xrotation Yrotation 
					JOINT Head
					{
						OFFSET 6.45672 0.0 0.0
						CHANNELS 6 Xposition Yposition Zposition Zrotation Xrotation Yrotation 
						End Site
						{
							OFFSET 0.0 0.0 0.0
						}
					}
				}
				JOINT Shoulder_L
				{
					OFFSET 12.9942 -0.242716 4.98039
					CHANNELS 6 Xposition Yposition Zposition Zrotation Xrotation Yrotation 
					JOINT UpperArm_L
					{
						OFFSET 5.34809 0.0 0.0
						CHANNELS 6 Xposition Yposition Zposition Zrotation Xrotation Yrotation 
						JOINT LowerArm_L
						{
							OFFSET 24.3286 1.87007e-05 0.0
							CHANNELS 6 Xposition Yposition Zposition Zrotation Xrotation Yrotation 
							JOINT Hand_L
							{
								OFFSET 22.2916 0.0 0.0
								CHANNELS 6 Xposition Yposition Zposition Zrotation Xrotation Yrotation 
								End Site
								{
									OFFSET 0.0 0.0 0.0
								}
							}
						}
					}
				}
				JOINT Shoulder_R
				{
					OFFSET 12.9945 -0.242716 -4.98039
					CHANNELS 6 Xposition Yposition Zposition Zrotation Xrotation Yrotation 
					JOINT UpperArm_R
					{
						OFFSET -5.34813 0.0 0.0
						CHANNELS 6 Xposition Yposition Zposition Zrotation Xrotation Yrotation 
						JOINT LowerArm_R
						{
							OFFSET -24.3289 0.000322201 0.0
							CHANNELS 6 Xposition Yposition Zposition Zrotation Xrotation Yrotation 
							JOINT Hand_R
							{
								OFFSET -22.2915 -0.000108084 0.0
								CHANNELS 6 Xposition Yposition Zposition Zrotation Xrotation Yrotation 
								End Site
								{
									OFFSET 0.0 0.0 0.0
								}
							}
						}
					}
				}
			}
		}
		JOINT UpperLeg_L
		{
			OFFSET -2.19248 -6.46944 0.0
			CHANNELS 6 Xposition Yposition Zposition Zrotation Xrotation Yrotation 
			JOINT LowerLeg_L
			{
				OFFSET 39.0811 0.0 -1.23785e-05
				CHANNELS 6 Xposition Yposition Zposition Zrotation Xrotation Yrotation 
				JOINT Foot_L
				{
					OFFSET 40.9854 0.0 -1.26872e-05
					CHANNELS 6 Xposition Yposition Zposition Zrotation Xrotation Yrotation 
					JOINT Toes_L
					{
						OFFSET 11.7543 0.0 0.0
						CHANNELS 6 Xposition Yposition Zposition Zrotation Xrotation Yrotation 
						End Site
						{
							OFFSET 0.0 0.0 0.0
						}
					}
				}
			}
		}
		JOINT UpperLeg_R
		{
			OFFSET -2.19251 6.46944 0.0
			CHANNELS 6 Xposition Yposition Zposition Zrotation Xrotation Yrotation 
			JOINT LowerLeg_R
			{
				OFFSET -39.0811 -0.00228153 -0.0401928
				CHANNELS 6 Xposition Yposition Zposition Zrotation Xrotation Yrotation 
				JOINT Foot_R
				{
					OFFSET -40.9854 0.0 0.0
					CHANNELS 6 Xposition Yposition Zposition Zrotation Xrotation Yrotation 
					JOINT Toes_R
					{
						OFFSET -11.7543 0.0 0.0
						CHANNELS 6 Xposition Yposition Zposition Zrotation Xrotation Yrotation 
						End Site
						{
							OFFSET 0.0 0.0 0.0
						}
					}
				}
			}
		}
	}
}
MOTION
Frames:	4
Frame Time:	0.0333333
0.000000 0.000000 0.000000 0.000000 0.000000 -0.000000 -4.485390 92.155200 -2.240280 85.366700 1.412670 4.707620 15.735700 0.000005 -0.000001 77.501300 86.100100 -74.349100 8.984550 -0.406207 -0.000000 -0.090681 -1.903500 6.299470 16.377300 -0.000001 -0.000001 8.823520 3.314450 -10.200600 6.456720 -0.000001 -0.000000 2.452610 2.086330 -18.294000 12.994200 -0.242716 4.980390 -92.820900 7.880320 -70.232200 5.348090 -0.000007 -0.000001 -71.138600 -7.162060 0.813917 24.328600 0.000019 0.000005 31.328800 -28.531000 -128.123000 22.291600 -0.000001 0.000005 58.451200 4.100580 22.786300 12.994500 -0.242716 -4.980390 88.365800 5.032180 -71.982300 -5.348130 -0.000001 -0.000004 -69.068200 29.608300 -5.557810 -24.328900 0.000322 -0.000009 1.629450 5.889380 -15.504900 -22.291500 -0.000108 -0.000004 1.455180 5.243790 1.596280 -2.192480 -6.469440 -0.000000 -171.370000 1.471860 -4.099040 39.081100 -0.000007 -0.000012 0.250523 -0.497008 26.751300 40.985400 -0.000006 -0.000013 -0.791303 13.133600 -73.962300 11.754300 -0.000000 0.000003 0.000339 0.161707 -10.018300 -2.192510 6.469440 -0.000001 -170.475000 6.910840 -177.284000 -39.081100 -0.002282 -0.040193 0.129207 -0.459198 15.329700 -40.985400 0.000008 0.000006 5.965970 -0.627857 -69.782300 -11.754300 -0.000006 -0.000006 -0.008048 0.256089 -6.172900
0.000000 0.000000 0.000000 0.000000 0.000000 -0.000000 -4.492310 92.154800 -2.249930 85.352100 1.317650 4.631260 15.735700 0.000005 -0.000001 77.482600 86.126700 -74.342300 8.984550 -0.406207 -0.000000 -0.143711 -1.895100 6.274880 16.377300 -0.000001 -0.000001 8.812410 3.362460 -10.122300 6.456720 -0.000001 -0.000000 2.442510 2.136750 -18.149600 12.994200 -0.242716 4.980390 -92.819200 7.865790 -70.210100 5.348090 -0.000007 -0.000001 -71.205700 -8.174640 0.608310 24.328600 0.000019 0.000005 22.395600 -22.235100 -132.561000 22.291600 -0.000001 0.000005 58.438800 3.955670 24.847700 12.994500 -0.242716 -4.980390 88.351600 5.070160 -71.962900 -5.348130 -0.000001 -0.000004 -69.121200 29.529600 -5.535830 -24.328900 0.000322 -0.000009 1.638590 5.907870 -15.541400 -22.291500 -0.000108 -0.000004 1.468660 5.243220 1.611220 -2.192480 -6.469440 -0.000000 -171.351000 1.424730 -4.159150 39.081100 -0.000007 -0.000012 0.253438 -0.502755 26.753000 40.985400 -0.000006 -0.000013 -0.782109 13.096800 -73.961600 11.754300 -0.000000 0.000003 0.000322 0.162018 -10.005700 -2.192510 6.469440 -0.000001 -170.453000 6.861500 -177.366000 -39.081100 -0.002282 -0.040193 0.128683 -0.457114 15.335200 -40.985400 0.000008 0.000006 5.979680 -0.565144 -69.746700 -11.754300 -0.000006 -0.000006 -0.008048 0.256088 -6.172930
0.000000 0.000000 0.000000 0.000000 0.000000 -0.000000 -4.489470 92.159600 -2.249330 85.339300 1.232870 4.594660 15.735700 0.000005 -0.000001 77.853400 86.144800 -74.737900 8.984550 -0.406207 -0.000000 -0.170487 -1.837540 6.225130 16.377300 -0.000001 -0.000001 8.780300 3.367790 -10.006300 6.456720 -0.000001 -0.000000 2.429120 2.082270 -17.956500 12.994200 -0.242716 4.980390 -92.808500 7.829850 -70.196500 5.348090 -0.000007 -0.000001 -71.128900 -7.608410 0.748068 24.328600 0.000019 0.000005 23.703600 -23.362800 -132.089000 22.291600 -0.000001 0.000005 59.166500 3.944090 25.015800 12.994500 -0.242716 -4.980390 88.329800 5.133300 -71.950000 -5.348130 -0.000001 -0.000004 -69.131300 29.481100 -5.454910 -24.328900 0.000322 -0.000009 1.670020 5.993130 -15.611400 -22.291500 -0.000108 -0.000004 1.489630 5.243900 1.593350 -2.192480 -6.469440 -0.000000 -171.340000 1.377170 -4.171910 39.081100 -0.000007 -0.000012 0.251828 -0.499876 26.738500 40.985400 -0.000006 -0.000013 -0.814352 13.028300 -73.968700 11.754300 -0.000000 0.000003 0.000336 0.161772 -10.015700 -2.192510 6.469440 -0.000001 -170.433000 6.766510 -177.368000 -39.081100 -0.002282 -0.040193 0.128119 -0.456450 15.290600 -40.985400 0.000008 0.000006 5.975410 -0.565955 -69.750000 -11.754300 -0.000006 -0.000006 -0.008108 0.256577 -6.152960
0.000000 0.000000 0.000000 0.000000 0.000000 -0.000000 -4.481770 92.160800 -2.250660 85.315300 1.185580 4.531500 15.735700 0.000005 -0.000001 77.881700 86.156000 -74.790700 8.984550 -0.406207 -0.000000 -0.192283 -1.828040 6.175790 16.377300 -0.000001 -0.000001 8.689920 3.322210 -9.884470 6.456720 -0.000001 -0.000000 2.413660 2.074500 -17.787100 12.994200 -0.242716 4.980390 -92.843200 7.929390 -70.201100 5.348090 -0.000007 -0.000001 -70.664500 -5.827180 1.138740 24.328600 0.000019 0.000005 31.633000 -29.262300 -128.433000 22.291600 -0.000001 0.000005 60.941100 4.124170 22.451200 12.994500 -0.242716 -4.980390 88.321200 5.164110 -71.963300 -5.348130 -0.000001 -0.000004 -69.139600 29.486400 -5.483480 -24.328900 0.000322 -0.000009 1.655510 5.969850 -15.539500 -22.291500 -0.000108 -0.000004 1.458220 5.244400 1.580290 -2.192480 -6.469440 -0.000000 -171.321000 1.376330 -4.229780 39.081100 -0.000007 -0.000012 0.252180 -0.500549 26.739700 40.985400 -0.000006 -0.000013 -0.778225 12.995000 -73.972300 11.754300 -0.000000 0.000003 0.000419 0.160252 -10.077400 -2.192510 6.469440 -0.000001 -170.407000 6.779850 -177.416000 -39.081100 -0.002282 -0.040193 0.128578 -0.458948 15.264700 -40.985400 0.000008 0.000006 5.985500 -0.505569 -69.764000 -11.754300 -0.000006 -0.000006 -0.008132 0.256773 -6.144960
